<svg id="Capa_1" data-name="Capa 1" xmlns="http://www.w3.org/2000/svg" viewBox="0 0 130 195"><title>iconos para mapa interactivo 2018</title><path d="M128.92,68.08c0,37-38.36,126.19-63.94,126.19-23.55,0-63.93-89.21-63.93-126.19s27-67,63.93-67S128.92,31.1,128.92,68.08Z" style="fill:#fff;stroke:#34acaf;stroke-miterlimit:10"/><circle cx="65.87" cy="66.68" r="44.22" style="fill:#fff"/><rect x="55.28" y="63.24" width="6.26" height="5.07" rx="1.02" ry="1.02" style="fill:#34acaf"/><rect x="55.25" y="55.14" width="6.26" height="5.07" rx="0.95" ry="0.95" style="fill:#34acaf"/><rect x="45.44" y="63.24" width="6.26" height="5.07" rx="1.07" ry="1.07" style="fill:#34acaf"/><rect x="45.42" y="55.14" width="6.26" height="5.07" rx="1.03" ry="1.03" style="fill:#34acaf"/><rect x="45.47" y="71.33" width="6.26" height="5.07" rx="1" ry="1" style="fill:#34acaf"/><rect x="55.3" y="71.33" width="6.26" height="5.07" rx="0.95" ry="0.95" style="fill:#34acaf"/><path d="M65.53,12.86A53.37,53.37,0,1,0,118.9,66.23,53.36,53.36,0,0,0,65.53,12.86ZM64.41,86H42.56V51.22a1.34,1.34,0,0,1,1.34-1.34H62.83a1.58,1.58,0,0,1,1.58,1.58Z" style="fill:#34acaf"/><rect x="46.42" y="40.31" width="14.14" height="7.68" style="fill:#fff"/><rect x="46.41" y="47.85" width="0.43" height="2.06" style="fill:#fff"/><rect x="60.13" y="47.82" width="0.43" height="2.06" style="fill:#fff"/><rect x="82.09" y="55.47" width="2.78" height="0.61" rx="0.21" ry="0.21" style="fill:#fff"/><polygon points="82.31 55.91 84.66 55.91 86.41 63.37 80.4 63.37 82.31 55.91" style="fill:#fff"/><path d="M89,86H68.26V63.89a.85.85,0,0,1,.85-.85H88a1,1,0,0,1,1,1Z" style="fill:#fff"/><rect x="76.96" y="66.38" width="3.98" height="3.22" rx="0.65" ry="0.65" style="fill:#34acaf"/><rect x="83.23" y="76.67" width="3.97" height="3.22" rx="0.6" ry="0.6" style="fill:#34acaf"/><rect x="76.99" y="76.67" width="3.98" height="3.22" rx="0.64" ry="0.64" style="fill:#34acaf"/><rect x="83.22" y="71.53" width="3.97" height="3.22" rx="0.64" ry="0.64" style="fill:#34acaf"/><rect x="83.21" y="66.38" width="3.98" height="3.22" rx="0.6" ry="0.6" style="fill:#34acaf"/><rect x="76.98" y="71.52" width="3.98" height="3.22" rx="0.68" ry="0.68" style="fill:#34acaf"/><rect x="70.61" y="66.38" width="3.98" height="3.22" rx="0.65" ry="0.65" style="fill:#34acaf"/><rect x="70.64" y="76.67" width="3.98" height="3.22" rx="0.64" ry="0.64" style="fill:#34acaf"/><rect x="70.63" y="71.52" width="3.98" height="3.22" rx="0.68" ry="0.68" style="fill:#34acaf"/></svg>