<svg id="Capa_1" data-name="Capa 1" xmlns="http://www.w3.org/2000/svg" viewBox="0 0 127 127"><title>iconos para mapa interactivo 2018</title><circle cx="63.61" cy="61.67" r="52.52" style="fill:#fff"/><path d="M63.61.23A63.39,63.39,0,1,0,127,63.61,63.38,63.38,0,0,0,63.61.23ZM30,88.7a1.76,1.76,0,0,1-1.76-1.76V75.68c11.16-1,15.32,4,16.39,5.76a15.2,15.2,0,0,1,1.84,7.26ZM99,86.94a1.76,1.76,0,0,1-1.76,1.76H80.79a15.2,15.2,0,0,1,1.84-7.26c1.07-1.75,5.23-6.79,16.39-5.76Zm0-16.48c-6.33-.52-10.91.65-14.18,2.33C70,69,68.68,50.77,68.68,50.77H58.55s-1.31,18.2-16.16,22c-3.27-1.68-7.86-2.85-14.18-2.33v-29a3,3,0,0,1,3-3H96.06a3,3,0,0,1,3,3Z" style="fill:#a3112a"/></svg>