<svg id="Capa_1" data-name="Capa 1" xmlns="http://www.w3.org/2000/svg" viewBox="0 0 127 127"><title>iconos para mapa interactivo 2018</title><circle cx="66.37" cy="62.89" r="52.52" style="fill:#fff"/><path d="M54.77,74.39a3.34,3.34,0,1,0,3.34,3.34A3.36,3.36,0,0,0,54.77,74.39Z" style="fill:#e74f1c"/><path d="M63.78,58.05h-.06a3.26,3.26,0,1,0,0,6.51h.06a3.26,3.26,0,1,0,0-6.51Z" style="fill:#e74f1c"/><path d="M69.34,77.73a3.35,3.35,0,1,0,3.35-3.34A3.37,3.37,0,0,0,69.34,77.73Z" style="fill:#e74f1c"/><path d="M54.53,33.67a21.55,21.55,0,0,1,1.85,4.47H71.12A21.55,21.55,0,0,1,73,33.67H54.53Z" style="fill:#e74f1c"/><path d="M63.5.14a63.39,63.39,0,1,0,63.39,63.38A63.39,63.39,0,0,0,63.5.14ZM76,94.15a6.69,6.69,0,0,1-6,3.71H57.56a6.68,6.68,0,0,1-6-3.71c-.91-1.81-1.49-3-2.76-5.25H78.7C77.46,91.09,76.7,92.64,76,94.15Zm5.42-9.72H46.13c-.53-.89-1.06-1.85-1.58-2.89L54.76,66.77l7.13,10.69a2.32,2.32,0,0,0,3.72,0l7.13-10.69L83,81.54C82.43,82.58,81.89,83.54,81.37,84.43ZM85,76.57,74.55,61.51a2.24,2.24,0,0,0-3.71,0L63.75,72.18l-7.1-10.64a2.23,2.23,0,0,0-3.7,0L42.54,76.57a23.61,23.61,0,0,1-1.19-7.07,20.39,20.39,0,0,1,.49-4.34h0c.1-.44.22-.93.36-1.39a39.46,39.46,0,0,1,1.44-3.87,31.25,31.25,0,0,1,5-7.63,14,14,0,0,0,1-1.3h0a14.73,14.73,0,0,0,1-1.69l0-.06h0l.06-.11a17.2,17.2,0,0,0,1.58-4.4h0v0a9.47,9.47,0,0,0,.17-2.93,17.09,17.09,0,0,0-3.88-8.83,2.24,2.24,0,0,1,1.67-3.73H77.19a2.24,2.24,0,0,1,1.67,3.73A17.09,17.09,0,0,0,75,41.75a9.7,9.7,0,0,0,.16,2.93v0h0a17.12,17.12,0,0,0,1.57,4.4l.06.11h0l0,.06a14.73,14.73,0,0,0,1,1.69h0a14,14,0,0,0,1,1.3,31.25,31.25,0,0,1,5,7.63,39.46,39.46,0,0,1,1.44,3.87c.14.46.26.95.36,1.39h0a20.39,20.39,0,0,1,.48,4.34A23.6,23.6,0,0,1,85,76.57Z" style="fill:#e74f1c"/></svg>