<svg id="Capa_1" data-name="Capa 1" xmlns="http://www.w3.org/2000/svg" viewBox="0 0 127 127"><title>iconos para mapa interactivo 2018</title><circle cx="63.66" cy="63.23" r="52.52" style="fill:#fff"/><path d="M45.56,44.69a5.23,5.23,0,1,0,6.93,2.57A5.35,5.35,0,0,0,45.56,44.69Z" style="fill:#a3112a"/><path d="M61.4,37.42A5.23,5.23,0,1,0,68.34,40,5.36,5.36,0,0,0,61.4,37.42Z" style="fill:#a3112a"/><path d="M41.87,61.73a5.23,5.23,0,1,0,6.94,2.57A5.34,5.34,0,0,0,41.87,61.73Z" style="fill:#a3112a"/><path d="M76.74,45.72a5.23,5.23,0,1,0,6.94,2.57A5.36,5.36,0,0,0,76.74,45.72Z" style="fill:#a3112a"/><path d="M63.66-.16a63.39,63.39,0,1,0,63.39,63.39A63.39,63.39,0,0,0,63.66-.16Zm18.5,70.24-5.7,2.62a5.37,5.37,0,0,0-2.56,7,6.27,6.27,0,0,0,2.7,2.58,4.44,4.44,0,0,1,2.73,2.59,5.34,5.34,0,0,1-2.57,6.93,31.38,31.38,0,1,1-26.2-57C66.41,27.43,84.33,33,90.73,47A17.26,17.26,0,0,1,82.16,70.08Z" style="fill:#a3112a"/></svg>