<svg id="Capa_1" data-name="Capa 1" xmlns="http://www.w3.org/2000/svg" viewBox="0 0 127 127"><title>iconos para mapa interactivo 2018</title><circle cx="62.38" cy="63.61" r="52.52" style="fill:#fff"/><rect x="34.98" y="45.47" width="7.77" height="7.77" style="fill:#ffb400"/><rect x="34.98" y="61.03" width="7.77" height="7.77" style="fill:#ffb400"/><path d="M63.49.23a63.39,63.39,0,1,0,63.38,63.38A63.39,63.39,0,0,0,63.49.23ZM97.18,92.12a2.59,2.59,0,0,1-2.59,2.59H92V92.12H84.22v2.59H42.75V92.12H35v2.59H32.39a2.6,2.6,0,0,1-2.6-2.59v-57a2.61,2.61,0,0,1,2.6-2.6H35v5.18h7.77V32.51H84.22v5.18H92V32.51h2.6a2.6,2.6,0,0,1,2.59,2.6Z" style="fill:#ffb400"/><rect x="34.98" y="76.57" width="7.77" height="7.79" style="fill:#ffb400"/><path d="M75.38,61.91,58.52,52.08a2,2,0,0,0-1.9.09,1.88,1.88,0,0,0-.91,1.62V73.44a1.88,1.88,0,0,0,.91,1.62,2,2,0,0,0,1,.29,2,2,0,0,0,.87-.2l16.86-9.83a1.9,1.9,0,0,0,0-3.41Z" style="fill:#ffb400"/><rect x="84.22" y="45.47" width="7.77" height="7.77" style="fill:#ffb400"/><rect x="84.22" y="76.57" width="7.77" height="7.79" style="fill:#ffb400"/><rect x="84.22" y="61.03" width="7.77" height="7.77" style="fill:#ffb400"/></svg>