<svg id="Capa_1" data-name="Capa 1" xmlns="http://www.w3.org/2000/svg" viewBox="0 0 127 127"><title>iconos para mapa interactivo 2018</title><circle cx="63.5" cy="64.83" r="52.52" style="fill:#fff"/><path d="M63.5.11A63.39,63.39,0,1,0,126.89,63.5,63.39,63.39,0,0,0,63.5.11ZM28.31,50.66,61.92,32.32a2.5,2.5,0,0,1,2.4,0l33.56,18.3a2.55,2.55,0,0,1,0,4.47L64.32,73.4a2.55,2.55,0,0,1-2.4,0L28.31,55.06A2.51,2.51,0,0,1,28.31,50.66Zm70.6,13.27V79.46a2.21,2.21,0,1,1-4.41,0V63.93a2.21,2.21,0,1,1,4.41,0ZM87.83,80.8A1.71,1.71,0,0,1,87,82.29l-23,12.49a1.65,1.65,0,0,1-1.61,0l-23-12.49a1.7,1.7,0,0,1-.89-1.49V70.53A1.69,1.69,0,0,1,40.89,69L62.32,80.66a1.7,1.7,0,0,0,1.61,0L85.33,69a1.7,1.7,0,0,1,2.5,1.49Zm8.88,11.57A3.3,3.3,0,1,1,100,89.08,3.3,3.3,0,0,1,96.71,92.37Z" style="fill:#34acaf"/></svg>