<svg id="Capa_1" data-name="Capa 1" xmlns="http://www.w3.org/2000/svg" viewBox="0 0 127 127"><title>iconos para mapa interactivo 2018</title><circle cx="63.5" cy="63.06" r="52.52" style="fill:#fff"/><path d="M63.5.22A63.39,63.39,0,1,0,126.89,63.6,63.39,63.39,0,0,0,63.5.22Zm-3.72,33.4,22.59,9.9-1.62,3.69H60L54.82,45Zm30.42,21L83,76.1c-.36,1-.75,1.73-2.78,1.73H53.38l.24,3.23a5.59,5.59,0,0,1,4.8,2.67H76.07a6.56,6.56,0,0,1,5.07-2.49c4.45,0,6.7,3.27,6.7,7a6.92,6.92,0,0,1-6.74,6.92,7,7,0,0,1-6.67-5.41H60.06c-.43,2-3.1,5.34-6.67,5.34-3.77,0-6.73-3.43-6.73-7.15a7,7,0,0,1,1.81-4.73L41.09,49.93H31.45c-1.22,0-1.86-.28-1.86-1.34v-3c0-1.11.64-1.67,1.82-1.67H42.82a2.85,2.85,0,0,1,2.9,2.38l1.09,5.13H87.43A3.2,3.2,0,0,1,90,52.53,2.07,2.07,0,0,1,90.2,54.6Z" style="fill:#34acaf"/></svg>