<svg id="Capa_1" data-name="Capa 1" xmlns="http://www.w3.org/2000/svg" viewBox="0 0 127 127"><title>iconos para mapa interactivo 2018</title><circle cx="63.54" cy="61.08" r="52.52" style="fill:#fff"/><path d="M42.51,70.61h2.83a8,8,0,0,0-1.24-2.34Z" style="fill:#34acaf"/><path d="M60.07,65.88a7.55,7.55,0,0,1,3.28.57l10.5-10.74H55.49Z" style="fill:#34acaf"/><path d="M34.86,74.67A2.78,2.78,0,0,1,35,71.82l4.53-6.65a8,8,0,0,0-2.25-.34,8.55,8.55,0,1,0,8.05,11.3H37.29A2.77,2.77,0,0,1,34.86,74.67Z" style="fill:#34acaf"/><path d="M47.33,63.54a14,14,0,0,1,3.75,7.07h2.36A7.34,7.34,0,0,1,55,68.13l-4.32-9.58Z" style="fill:#34acaf"/><path d="M63.54.11A63.39,63.39,0,1,0,126.93,63.5,63.39,63.39,0,0,0,63.54.11ZM89.79,87.44A14.06,14.06,0,0,1,81.61,62l-1.94-4.3L67.29,70.31a6.86,6.86,0,0,1,.5,1.53,7.51,7.51,0,0,1-14.34,4.3H51.08a14.06,14.06,0,1,1-8.31-15.72l5.29-7.77L45.4,46.76H42.62a2.76,2.76,0,1,1,0-5.51H52.76a2.76,2.76,0,0,1,0,5.51H51.45L53,50.19H76.3L74,45.08H70.56a2.76,2.76,0,0,1,0-5.52h5.22a2.75,2.75,0,0,1,2.51,1.63l8.35,18.49a14.06,14.06,0,1,1,3.15,27.76Z" style="fill:#34acaf"/><path d="M89.79,64.83a7,7,0,0,0-.79.08l3.31,7.33a2.76,2.76,0,0,1-1.39,3.65,2.64,2.64,0,0,1-1.13.24,2.75,2.75,0,0,1-2.51-1.63L84,67.16a8.52,8.52,0,1,0,5.83-2.33Z" style="fill:#34acaf"/></svg>