<svg id="Capa_1" data-name="Capa 1" xmlns="http://www.w3.org/2000/svg" viewBox="0 0 127 127"><title>iconos para mapa interactivo 2018</title><circle cx="62.39" cy="63.5" r="52.52" style="fill:#fff"/><path d="M80.44,62.44l-18,18a.12.12,0,0,0,.09.21h18a.12.12,0,0,0,.12-.13v-18A.13.13,0,0,0,80.44,62.44Z" style="fill:#e74f1c"/><path d="M63.5.11A63.39,63.39,0,1,0,126.89,63.5,63.39,63.39,0,0,0,63.5.11Zm9.85,29.7,3.6-1a1,1,0,0,1,1.22,1.22l-1,3.6L75.8,38.94l-3.86-3.86-3.86-3.86Zm-9.11,5.25L72,42.78,41.39,73.37l-7.72-7.71ZM31.55,81.7l-6.27-6.26a1,1,0,0,1,0-1.4l4.5-4.5,7.72,7.72L33.06,81.7A1.06,1.06,0,0,1,31.55,81.7Zm60.81,9.38a1.29,1.29,0,0,1-1.29,1.29H36.12a1,1,0,0,1-.67-1.61l8-8a.12.12,0,0,1,.17,0l2.84,2.84a2.83,2.83,0,0,0,3.65.38,3.09,3.09,0,0,0,.23-4.69l-2.62-2.62a.13.13,0,0,1,0-.18L52.18,74a.15.15,0,0,1,.18,0l2.84,2.84a2.8,2.8,0,0,0,3.64.38,3.09,3.09,0,0,0,.24-4.69l-2.62-2.62a.13.13,0,0,1,0-.18l4.5-4.5a.13.13,0,0,1,.18,0L64,68.09a2.81,2.81,0,0,0,3.64.37,3.08,3.08,0,0,0,.24-4.68l-2.63-2.63a.12.12,0,0,1,0-.17l4.51-4.51a.11.11,0,0,1,.17,0l2.84,2.84a2.82,2.82,0,0,0,3.65.37A3.08,3.08,0,0,0,76.63,55L74,52.37a.11.11,0,0,1,0-.17l4.51-4.51a.11.11,0,0,1,.17,0l2.84,2.84a2.82,2.82,0,0,0,3.64.38,3.09,3.09,0,0,0,.24-4.69L82.79,43.6a.13.13,0,0,1,0-.18l7.69-7.69a1.1,1.1,0,0,1,1.88.77Z" style="fill:#e74f1c"/></svg>