<svg id="Capa_1" data-name="Capa 1" xmlns="http://www.w3.org/2000/svg" viewBox="0 0 127 127"><title>iconos para mapa interactivo 2018</title><circle cx="63.54" cy="63.61" r="63.39" style="fill:#34acaf"/><rect x="60.67" y="26.34" width="5.83" height="74.84" rx="2.84" ry="2.84" style="fill:#fff"/><path d="M50.61,96.52h25.8a2.32,2.32,0,0,1,2.32,2.32v3.42a0,0,0,0,1,0,0H48.29a0,0,0,0,1,0,0V98.84A2.32,2.32,0,0,1,50.61,96.52Z" style="fill:#fff"/><path d="M37.55,52H56.84A1.45,1.45,0,0,0,58.3,50.5V44.33a1.46,1.46,0,0,0-1.46-1.46H37.55a4,4,0,0,0-1.93.51l-6.21,3.56a.55.55,0,0,0,0,1l6.21,3.55A3.84,3.84,0,0,0,37.55,52Z" style="fill:#fff"/><path d="M37.55,39.12H56.84a1.46,1.46,0,0,0,1.46-1.46V31.49A1.45,1.45,0,0,0,56.84,30H37.55a3.84,3.84,0,0,0-1.93.51L29.41,34.1a.55.55,0,0,0,0,.95l6.21,3.55A3.85,3.85,0,0,0,37.55,39.12Z" style="fill:#fff"/><path d="M90.35,48.24H71.05a1.45,1.45,0,0,1-1.45-1.45V40.62a1.45,1.45,0,0,1,1.45-1.46h19.3a3.82,3.82,0,0,1,1.92.52l6.21,3.55a.55.55,0,0,1,0,1l-6.21,3.55A3.81,3.81,0,0,1,90.35,48.24Z" style="fill:#fff"/></svg>