<svg id="Capa_1" data-name="Capa 1" xmlns="http://www.w3.org/2000/svg" viewBox="0 0 127 127"><title>iconos para mapa interactivo 2018</title><circle cx="63.39" cy="66.4" r="52.52" style="fill:#fff"/><polygon points="60.84 75.8 60.84 75.8 60.84 75.8 60.84 75.8" style="fill:#692dac"/><polygon points="73 68.76 73 68.76 73 68.76 73 68.76" style="fill:#692dac"/><polygon points="55.41 66.39 55.41 66.4 55.41 66.4 55.41 66.39" style="fill:#692dac"/><polygon points="55.5 67.08 55.5 67.08 55.5 67.08 55.5 67.08" style="fill:#692dac"/><path d="M63.39.23a63.39,63.39,0,1,0,63.38,63.38A63.39,63.39,0,0,0,63.39.23ZM61.71,76.77a1.61,1.61,0,0,1-.77,1L49.67,84.29a1,1,0,0,0-.49.63,1,1,0,0,0,.11.78,1.06,1.06,0,0,0,1.41.39l5.69-3.29a1.67,1.67,0,0,1,2.26.61,1.76,1.76,0,0,1,.22,1.35,1.68,1.68,0,0,1-.78,1l-6.71,3.87c-3,1.81-7.45,3.74-10.23,3.93H41l-.19-.09a.74.74,0,0,0-.61,0l-.21.09-.23-.05a3.15,3.15,0,0,1-.8-.29,1,1,0,0,0-1,0l-5.18,3L25,82.79l3.58-2.07a1,1,0,0,0,.51-.77c.7-5.49,2.2-6.77,3.94-8.25a12.53,12.53,0,0,0,3.9-5c1.52-3.44,3.08-3.62,3.54-3.58l.25.06a2,2,0,0,1,1.24,1.28c.64,2-1.14,5.36-1.89,6.49a1,1,0,0,0,.3,1.44,1,1,0,0,0,1.15,0l12.25-7.06A1.63,1.63,0,0,1,55,65.15a1.66,1.66,0,0,1,1,.78,1.7,1.7,0,0,1,.22,1.34,1.64,1.64,0,0,1-.77,1L44.18,74.79a1,1,0,0,0-.48.63,1,1,0,0,0,.1.79,1.08,1.08,0,0,0,1.42.38l13.55-7.83a1.66,1.66,0,0,1,2.26.61,1.66,1.66,0,0,1,.22,1.34,1.61,1.61,0,0,1-.77,1l-1.87,1.09a4,4,0,0,0-.42.21L46.93,79.55a1,1,0,0,0-.48.63,1,1,0,0,0,.1.79,1.08,1.08,0,0,0,1.42.38l11.45-6.62a1.7,1.7,0,0,1,1.06-.08,1.64,1.64,0,0,1,1,.77l.06.1A1.6,1.6,0,0,1,61.71,76.77Zm2.85-13.53V61.08a4.3,4.3,0,0,0,0-.46l0-13a1,1,0,0,0-2.08,0V60.81a1.7,1.7,0,0,1-3.39-.19v-13a1,1,0,0,0-2.08,0v6.56a1.66,1.66,0,0,1-1.66,1.66,1.68,1.68,0,0,1-1.76-1.66V46.4c-.06-2.76.4-10.94,3.15-12.57a1,1,0,0,0,.51-.9V27H72.72V31.1a1,1,0,0,0,.42.83c4.41,3.35,4.76,5.29,5.17,7.54a12.68,12.68,0,0,0,2.38,5.87c2.23,3,1.59,4.5,1.34,4.86l-.18.19a2,2,0,0,1-1.73.43c-2-.44-4.07-3.67-4.68-4.88a1,1,0,0,0-1.39-.47,1,1,0,0,0-.57,1v14a1.71,1.71,0,1,1-3.42.12v-13a1,1,0,1,0-2.07,0V63.24a1.66,1.66,0,0,1-1.66,1.66A1.68,1.68,0,0,1,64.56,63.24ZM97.22,95.93,95.08,94.7a.72.72,0,0,0-.6,0l-.35.14-.78-.45a1,1,0,0,0-.92-.06,13.7,13.7,0,0,1-6.28,1.43c-.43-.12-.7-.21-1-.3l-.93-.33A12.22,12.22,0,0,0,82,94.55,12.28,12.28,0,0,0,77,94.13c-3.77.4-4.69-.88-4.88-1.28l-.07-.24a2,2,0,0,1,.5-1.72c1.39-1.54,5.21-1.68,6.56-1.61a1,1,0,0,0,1.09-1,1,1,0,0,0-.57-1L67.42,80.24a1.65,1.65,0,0,1-.77-1A1.61,1.61,0,0,1,66.82,78a1.72,1.72,0,0,1,1.05-.86,1.68,1.68,0,0,1,1.26.17L80.4,83.79a1.06,1.06,0,0,0,1.42-.38A1,1,0,0,0,81.44,82L67.89,74.17a1.66,1.66,0,0,1-.61-2.26A1.71,1.71,0,0,1,68.34,71a1.62,1.62,0,0,1,1.26.16l1.88,1.09.39.25L83.15,79a1.06,1.06,0,0,0,1.42-.38,1.05,1.05,0,0,0-.38-1.42L72.74,70.62a1.77,1.77,0,0,1-.61-.89,1.62,1.62,0,0,1,.17-1.25,1.73,1.73,0,0,1,1-.87,1.67,1.67,0,0,1,1.26.17l11.28,6.51a1.06,1.06,0,0,0,1.42-.38,1.05,1.05,0,0,0-.38-1.42l-5.68-3.28A1.64,1.64,0,0,1,80.64,67a1.72,1.72,0,0,1,1.06-.87,1.66,1.66,0,0,1,1.25.17l6.72,3.88c2.42,1.32,9.28,5.8,9.31,9a1,1,0,0,0,.52.89l5.17,3Z" style="fill:#692dac"/><polygon points="67.99 72.19 67.99 72.19 67.99 72.19 67.99 72.19" style="fill:#692dac"/></svg>