<svg id="Capa_1" data-name="Capa 1" xmlns="http://www.w3.org/2000/svg" viewBox="0 0 127 127"><title>iconos para mapa interactivo 2018</title><circle cx="63.53" cy="63.47" r="52.52" style="fill:#fff"/><path d="M63.5.08a63.39,63.39,0,1,0,63.39,63.39A63.39,63.39,0,0,0,63.5.08ZM92.16,39.39a6,6,0,1,1-6,6A6,6,0,0,1,92.16,39.39ZM63.49,35.93a6.21,6.21,0,1,1-6.21,6.21A6.21,6.21,0,0,1,63.49,35.93ZM34.84,39.39a6,6,0,1,1-6,6A6,6,0,0,1,34.84,39.39ZM37,79.52V90.79H34.3V79.55h-8V90.79H23.63V79.1a2.22,2.22,0,0,1-.89-1.77V58a2.22,2.22,0,1,1,4.44,0v11.6s-.61,5.52,5.48,5.52h4A2.22,2.22,0,0,1,37,79.52Zm7.73,8.85A2.89,2.89,0,0,1,41.81,91l-.25,0a2.89,2.89,0,0,1-2.63-3.13c.31-3.57.7-6.9,1-9.89a3.41,3.41,0,0,0-3.54-4H32.68c-2.63,0-4.58-1.52-4.58-4.37l0-13.14c0-2.44,2.13-4.07,4.14-4.56h0a8.3,8.3,0,0,1,1.36-.16,4.6,4.6,0,0,1,1.29.17,5.52,5.52,0,0,1,3.87,3.23c1.73,4.63,2.65,7.11,9.74,6.59a2.31,2.31,0,1,1,.34,4.61c-1,.07-1.92.11-2.76.11-3.3,0-5.47-.59-7.08-1.82v3.85c4.65.33,5.55,1.51,6,2.37S46.05,72.75,44.69,88.37ZM81.14,71.28h-2V90.85H75.27V71.28h-4A2.86,2.86,0,0,1,71.6,73L69.78,88.28a2.89,2.89,0,0,1-2.87,2.57l-.32,0A2.89,2.89,0,0,1,64,87.65l1.59-13.1-2.13-.88-2.19.89,1.6,13.07a2.91,2.91,0,0,1-2.56,3.2H60a2.9,2.9,0,0,1-2.87-2.57L55.32,73a2.87,2.87,0,0,1,.37-1.76h-4V90.85H47.85V71.28h-2V67.13h5.66c-.44-3.51-1-14.46,8.26-17.71.17-.05,1.61-.58,2.19-.72h0l1.51,1.57L65,48.7c.57.13,2,.66,2.21.72,9.22,3.06,8.68,14.17,8.26,17.71h5.64Zm6.93,16.58A2.89,2.89,0,0,1,85.44,91h-.25a2.88,2.88,0,0,1-2.88-2.63C81,72.75,81.56,71.8,82,70.81s1.35-2,6-2.37V64.59c-1.61,1.23-3.78,1.82-7.08,1.82-.84,0-1.76,0-2.76-.11a2.31,2.31,0,1,1,.34-4.61c7.09.52,8-2,9.74-6.59a5.52,5.52,0,0,1,3.87-3.23,4.63,4.63,0,0,1,1.3-.17,8.27,8.27,0,0,1,1.35.16h0c2,.49,4.14,2.12,4.14,4.56l0,13.14c0,2.85-2,4.37-4.58,4.37H90.65a3.41,3.41,0,0,0-3.54,4C87.37,81,87.76,84.29,88.07,87.86Zm16.19-10.53a2.22,2.22,0,0,1-.89,1.77V90.79h-2.66V79.55h-8V90.79H90V79.52a2.22,2.22,0,0,1,.36-4.41h3.94c6.09,0,5.48-5.52,5.48-5.52V58a2.22,2.22,0,0,1,4.44,0Z" style="fill:#692dac"/><path d="M69.84,67.13h.78c.16-1,.76-5.79-.78-9.34Z" style="fill:#692dac"/><polygon points="63.48 50.5 61.98 60.51 63.48 62.56 63.51 62.56 65 60.51 63.51 50.5 63.48 50.5" style="fill:#692dac"/><path d="M56.39,67.13h.74V57.82C55.65,61.36,56.23,66.09,56.39,67.13Z" style="fill:#692dac"/></svg>