<svg id="Capa_1" data-name="Capa 1" xmlns="http://www.w3.org/2000/svg" viewBox="0 0 127 127"><title>iconos para mapa interactivo 2018</title><circle cx="63.48" cy="63.61" r="52.52" style="fill:#fff"/><path d="M84.61,73.42H42.39c-1.06,0-1.92,1.19-1.92,2.65s.86,2.65,1.92,2.65H84.61c1.06,0,1.92-1.19,1.92-2.65S85.67,73.42,84.61,73.42Z" style="fill:#ffb400"/><path d="M84.61,61.18H42.39c-1.06,0-1.92,1.18-1.92,2.64s.86,2.64,1.92,2.64H84.61c1.06,0,1.92-1.18,1.92-2.64S85.67,61.18,84.61,61.18Z" style="fill:#ffb400"/><path d="M63.5.23a63.39,63.39,0,1,0,63.39,63.38A63.39,63.39,0,0,0,63.5.23ZM95.18,84.75a3.62,3.62,0,0,1-3.56,3.68H69.4l0,0-1.9,3.29L65.58,95a2.4,2.4,0,0,1-4.16,0l-1.9-3.28-1.9-3.29a0,0,0,0,1,0,0H35.38a3.62,3.62,0,0,1-3.56-3.68v-42a3.61,3.61,0,0,1,3.56-3.67H91.62a3.61,3.61,0,0,1,3.56,3.67Z" style="fill:#ffb400"/><path d="M84.61,48.92H42.39c-1.06,0-1.92,1.19-1.92,2.65s.86,2.65,1.92,2.65H84.61c1.06,0,1.92-1.18,1.92-2.65S85.67,48.92,84.61,48.92Z" style="fill:#ffb400"/></svg>