<svg id="Capa_1" data-name="Capa 1" xmlns="http://www.w3.org/2000/svg" viewBox="0 0 127 127"><title>iconos para mapa interactivo 2018</title><circle cx="63.79" cy="63.92" r="52.52" style="fill:#fff"/><rect x="51.2" y="59.83" width="7.43" height="6.02" rx="1.21" ry="1.21" style="fill:#34acaf"/><rect x="51.17" y="50.22" width="7.43" height="6.02" rx="1.13" ry="1.13" style="fill:#34acaf"/><rect x="39.52" y="59.83" width="7.43" height="6.02" rx="1.27" ry="1.27" style="fill:#34acaf"/><rect x="39.49" y="50.22" width="7.43" height="6.02" rx="1.22" ry="1.22" style="fill:#34acaf"/><rect x="39.55" y="69.45" width="7.43" height="6.02" rx="1.19" ry="1.19" style="fill:#34acaf"/><rect x="51.23" y="69.45" width="7.43" height="6.02" rx="1.13" ry="1.13" style="fill:#34acaf"/><path d="M63.39,0a63.39,63.39,0,1,0,63.38,63.39A63.39,63.39,0,0,0,63.39,0ZM62.05,86.82H36.1V45.56A1.59,1.59,0,0,1,37.69,44H60.18a1.88,1.88,0,0,1,1.87,1.88Z" style="fill:#34acaf"/><rect x="40.68" y="32.6" width="16.8" height="9.13" style="fill:#fff"/><rect x="40.67" y="41.56" width="0.52" height="2.45" style="fill:#fff"/><rect x="56.97" y="41.52" width="0.52" height="2.45" style="fill:#fff"/><rect x="83.05" y="50.68" width="3.31" height="0.66" rx="0.24" ry="0.24" style="fill:#fff"/><polygon points="83.32 51.13 86.11 51.13 88.18 59.99 81.05 59.99 83.32 51.13" style="fill:#fff"/><path d="M91.29,86.82H66.62V60.62a1,1,0,0,1,1-1H90.09a1.19,1.19,0,0,1,1.2,1.19Z" style="fill:#fff"/><rect x="76.96" y="63.57" width="4.73" height="3.83" rx="0.78" ry="0.78" style="fill:#34acaf"/><rect x="84.41" y="75.79" width="4.72" height="3.82" rx="0.71" ry="0.71" style="fill:#34acaf"/><rect x="77" y="75.79" width="4.73" height="3.83" rx="0.76" ry="0.76" style="fill:#34acaf"/><rect x="84.39" y="69.68" width="4.72" height="3.82" rx="0.77" ry="0.77" style="fill:#34acaf"/><rect x="84.39" y="63.57" width="4.73" height="3.83" rx="0.72" ry="0.72" style="fill:#34acaf"/><rect x="76.98" y="69.68" width="4.73" height="3.83" rx="0.81" ry="0.81" style="fill:#34acaf"/><rect x="69.42" y="63.57" width="4.73" height="3.83" rx="0.78" ry="0.78" style="fill:#34acaf"/><rect x="69.45" y="75.79" width="4.73" height="3.83" rx="0.76" ry="0.76" style="fill:#34acaf"/><rect x="69.43" y="69.68" width="4.73" height="3.83" rx="0.81" ry="0.81" style="fill:#34acaf"/></svg>