<svg id="Capa_1" data-name="Capa 1" xmlns="http://www.w3.org/2000/svg" viewBox="0 0 127 127"><title>iconos para mapa interactivo 2018</title><circle cx="64.9" cy="64.21" r="52.52" style="fill:#fff"/><path d="M63.5.11A63.39,63.39,0,1,0,126.89,63.5,63.39,63.39,0,0,0,63.5.11ZM30.34,52.67,44.83,42.29,62.38,29.71a2,2,0,0,1,2.24,0L82.17,42.29,96.66,52.67a1.66,1.66,0,0,1-1.12,3H31.46A1.66,1.66,0,0,1,30.34,52.67Zm58.72,8.74v17.8a2,2,0,0,1-1.79,2.18H83.91a2,2,0,0,1-1.8-2.18V61.41a2,2,0,0,1,1.8-2.18h3.36A2,2,0,0,1,89.06,61.41Zm-14.71,0v17.8a2,2,0,0,1-1.8,2.18H69.19a2,2,0,0,1-1.79-2.18V61.41a2,2,0,0,1,1.79-2.18h3.36A2,2,0,0,1,74.35,61.41Zm-14.75,0v17.8a2,2,0,0,1-1.79,2.18H54.45a2,2,0,0,1-1.8-2.18V61.41a2,2,0,0,1,1.8-2.18h3.36A2,2,0,0,1,59.6,61.41Zm-14.71,0v17.8a2,2,0,0,1-1.8,2.18H39.73a2,2,0,0,1-1.79-2.18V61.41a2,2,0,0,1,1.79-2.18h3.36A2,2,0,0,1,44.89,61.41Zm52.47,32.2H29.64V90.46a1.15,1.15,0,0,1,1.15-1.16h1.48V86.15A1.16,1.16,0,0,1,33.43,85h60a1.34,1.34,0,0,1,1.34,1.33v3h1.41a1.22,1.22,0,0,1,1.22,1.23Z" style="fill:#1b1464"/></svg>