<svg id="Capa_1" data-name="Capa 1" xmlns="http://www.w3.org/2000/svg" viewBox="0 0 127 127"><title>iconos para mapa interactivo 2018</title><circle cx="65.47" cy="63.51" r="52.52" style="fill:#fff"/><path d="M63.5.11A63.39,63.39,0,1,0,126.89,63.5,63.39,63.39,0,0,0,63.5.11Zm-5,52c0,1.3-4.56,5.37-5.77,5.79V96.41a4.15,4.15,0,0,1-4,4.09,3.89,3.89,0,0,1-2.82-1.21,3.94,3.94,0,0,1-1.22-2.88V57.87C43.44,57.44,38,53.38,38,52.08V35a2,2,0,0,1,.61-1.44A2.05,2.05,0,0,1,42.14,35V48.27a2,2,0,0,0,3.49,1.44,2,2,0,0,0,.6-1.44V35a2,2,0,0,1,.61-1.44,2,2,0,0,1,1.44-.61,1.94,1.94,0,0,1,1.44.61A2,2,0,0,1,50.33,35V48.27a2,2,0,0,0,3.49,1.44,2,2,0,0,0,.6-1.44V35A2,2,0,0,1,55,33.52a2,2,0,0,1,2.87,0A2,2,0,0,1,58.52,35ZM63.45,63.5h0Zm21.48,33a4,4,0,0,1-1.21,2.88,4.05,4.05,0,0,1-6.88-2.88V67.32H72.2a1,1,0,0,1-1-1V40.7A10.26,10.26,0,0,1,81.41,30.46h1.48a2,2,0,0,1,2,2Z" style="fill:#34acaf"/></svg>