<svg id="Capa_1" data-name="Capa 1" xmlns="http://www.w3.org/2000/svg" viewBox="0 0 127 127"><title>iconos para mapa interactivo 2018</title><circle cx="64.9" cy="64.4" r="52.52" style="fill:#fff"/><path d="M62.86,64.45a3.51,3.51,0,0,0-3.18,3.33V74.5h7.64V67.61C67.32,65.66,65.25,64.12,62.86,64.45Z" style="fill:#34acaf"/><path d="M63.5.31a63.39,63.39,0,1,0,63.39,63.38A63.38,63.38,0,0,0,63.5.31ZM59.44,25h2.39V21.6a1.7,1.7,0,0,1,3.34,0V25h2.39a1.55,1.55,0,0,1,1.67,1.4,1.55,1.55,0,0,1-1.67,1.39H65.17V34a1.7,1.7,0,0,1-3.34,0V27.8H59.44a1.55,1.55,0,0,1-1.67-1.39A1.55,1.55,0,0,1,59.44,25ZM51.29,54,60.8,39.67a2.4,2.4,0,0,1,2-1h1.41a2.39,2.39,0,0,1,2,1L75.71,54c.64,1-.2,2.17-1.52,2.17H52.81C51.49,56.18,50.65,55,51.29,54ZM88,100.61a2.83,2.83,0,0,1-3,2.55H70.78V90.84c0-3.78-4.07-6.76-8.73-6a6.59,6.59,0,0,0-5.83,6.23v12.09H42.08a2.82,2.82,0,0,1-3-2.54V84.69a2.45,2.45,0,0,1,1.16-2l12.33-8.19V60.79a1.12,1.12,0,0,1,1.2-1H73.05A1.31,1.31,0,0,1,74.46,61V74.49l12.33,8.19a2.45,2.45,0,0,1,1.16,2Z" style="fill:#34acaf"/></svg>