<svg id="Capa_1" data-name="Capa 1" xmlns="http://www.w3.org/2000/svg" viewBox="0 0 127 127"><title>iconos para mapa interactivo 2018</title><circle cx="64.9" cy="61.33" r="52.52" style="fill:#fff"/><polygon points="45.24 48.65 80.01 48.65 83.36 44.47 41.9 44.47 45.24 48.65" style="fill:#34acaf"/><path d="M63.39.11A63.39,63.39,0,1,0,126.77,63.5,63.39,63.39,0,0,0,63.39.11Zm26,43.58L64.72,74.46V94.63h8.36a2.09,2.09,0,1,1,0,4.18H52.18a2.09,2.09,0,1,1,0-4.18h8.36V74.46L35.92,43.69a2.1,2.1,0,0,1,1.63-3.4H87.7a2.1,2.1,0,0,1,1.64,3.4Zm2,4.65,1.5-1.87A6.54,6.54,0,0,0,87.7,35.85H79.3a10.19,10.19,0,1,1,12,12.49Z" style="fill:#34acaf"/></svg>