<svg id="Capa_1" data-name="Capa 1" xmlns="http://www.w3.org/2000/svg" viewBox="0 0 127 127"><title>iconos para mapa interactivo 2018</title><circle cx="63.5" cy="61.28" r="52.52" style="fill:#fff"/><path d="M76.7,58.76a4.74,4.74,0,1,0,4.73,4.74A4.74,4.74,0,0,0,76.7,58.76Z" style="fill:#e74f1c"/><path d="M54.5,54.8H49.2V49.38a2.16,2.16,0,0,0-2.13-2.17H45.48a2.15,2.15,0,0,0-2.12,2.17V54.8h-5.3A2.16,2.16,0,0,0,35.92,57v1.62a2.16,2.16,0,0,0,2.14,2.17h5.3v5.41a2.15,2.15,0,0,0,2.13,2.17h1.59a2.14,2.14,0,0,0,2.12-2.17V60.76h5.3a2.16,2.16,0,0,0,2.13-2.17V57A2.15,2.15,0,0,0,54.5,54.8Z" style="fill:#e74f1c"/><path d="M84.31,47.27A4.74,4.74,0,1,0,89.05,52,4.74,4.74,0,0,0,84.31,47.27Z" style="fill:#e74f1c"/><path d="M63.5.11A63.39,63.39,0,1,0,126.89,63.5,63.39,63.39,0,0,0,63.5.11Zm33,86.53c-4,4.91-11.81,3.39-13.75,2.06-4.55-3.13-9.3-9.26-9.3-9.26A5.73,5.73,0,0,0,71,77.08a8.62,8.62,0,0,0-3.89-.43H59.92a4.78,4.78,0,0,0-3.39.21,11.55,11.55,0,0,0-3.37,3.91s-3.25,4.94-7.25,7.44c-6,3.75-10.42,1.35-12.39,0,.28.2-7.39-4.31-5.79-18.3C30.34,47.16,39,39.89,40.22,39c5.14-3.69,10.34-2,13.45-.81,2.46,1,4.24,3.1,6.28,4.09a10.79,10.79,0,0,0,8.42-.06c2.15-.9,3.59-3,5.71-4.08,1.87-1,7.5-2.46,12.35.11,3,1.6,8,5.59,11.53,21.77C100.91,73.55,99.11,83.43,96.5,86.64Z" style="fill:#e74f1c"/></svg>