<svg id="Capa_1" data-name="Capa 1" xmlns="http://www.w3.org/2000/svg" viewBox="0 0 127 127"><title>iconos para mapa interactivo 2018</title><circle cx="66.35" cy="63.61" r="52.52" style="fill:#fff"/><path d="M63.5.23a63.39,63.39,0,1,0,63.39,63.38A63.39,63.39,0,0,0,63.5.23ZM85.07,76.29c0,5-5,9.69-11.28,10.45s-11.27-2.43-11.27-7.43,5-9.69,11.27-10.46a11.39,11.39,0,0,1,6.61.86v-19c0-2.38-2.57-1.53-2.57-1.53L54.6,56.47s-2.67.94-2.67,3.17V83.3c0,5-4.57,9.65-10.79,10.53s-11.28-2.19-11.28-7.21,5-9.79,11.28-10.66c4.24-.6,6.14.68,6.14.68V48.93A8.23,8.23,0,0,1,53,41.52l26.27-8c3.18-.91,5.76.94,5.76,4.12Z" style="fill:#a3112a"/></svg>