<svg id="Capa_1" data-name="Capa 1" xmlns="http://www.w3.org/2000/svg" viewBox="0 0 127 127"><title>iconos para mapa interactivo 2018</title><circle cx="66.09" cy="63.53" r="52.52" style="fill:#fff"/><path d="M63.5.15a63.39,63.39,0,1,0,63.39,63.38A63.39,63.39,0,0,0,63.5.15Zm32.14,90.9a1.23,1.23,0,0,1-1.23,1.23H83.82a1.23,1.23,0,0,1-1.24-1.23V85.47h0v-2.2A1.24,1.24,0,0,0,81.35,82H45.65a1.24,1.24,0,0,0-1.23,1.24v2.2h0v5.58a1.23,1.23,0,0,1-1.24,1.23H32.59a1.23,1.23,0,0,1-1.23-1.23V86.7a1.23,1.23,0,0,1,1.23-1.23h4.46a1.23,1.23,0,0,0,1.23-1.24V77.14a1.24,1.24,0,0,1,1.24-1.24H59.2a1.23,1.23,0,0,0,1.23-1.24V65.1a1.23,1.23,0,0,0-1.23-1.23H39.52a1.25,1.25,0,0,1-1.24-1.24v-7.1a1.23,1.23,0,0,0-1.23-1.23H34a1.24,1.24,0,0,1-1.23-1.24V48.72A1.23,1.23,0,0,1,34,47.48h9.23a1.23,1.23,0,0,1,1.24,1.24V54.3h0v2.2a1.23,1.23,0,0,0,1.23,1.23H59.2a1.23,1.23,0,0,0,1.23-1.23V53a1.23,1.23,0,0,0-1.23-1.24H54.51a1.23,1.23,0,0,1-1.23-1.24v-13a1.24,1.24,0,0,1,1.23-1.24h18a1.24,1.24,0,0,1,1.23,1.24v13a1.23,1.23,0,0,1-1.23,1.24H67.8A1.23,1.23,0,0,0,66.57,53V56.5a1.23,1.23,0,0,0,1.23,1.23H81.35a1.23,1.23,0,0,0,1.23-1.23V54.3h0V48.72a1.23,1.23,0,0,1,1.24-1.24h9.23a1.23,1.23,0,0,1,1.23,1.24v4.34a1.24,1.24,0,0,1-1.23,1.24H90a1.23,1.23,0,0,0-1.23,1.23v7.1a1.25,1.25,0,0,1-1.24,1.24H67.8a1.23,1.23,0,0,0-1.23,1.23v9.56A1.23,1.23,0,0,0,67.8,75.9H87.48a1.24,1.24,0,0,1,1.24,1.24v7.09A1.23,1.23,0,0,0,90,85.47h4.46a1.23,1.23,0,0,1,1.23,1.23Z" style="fill:#1b1464"/></svg>