<svg id="Capa_1" data-name="Capa 1" xmlns="http://www.w3.org/2000/svg" viewBox="0 0 127 127"><title>iconos para mapa interactivo 2018</title><circle cx="64.78" cy="61.07" r="52.52" style="fill:#fff"/><path d="M70.83,47a7.48,7.48,0,1,0-14.95,0,7.39,7.39,0,0,0,7.47,7.47A7.49,7.49,0,0,0,70.83,47Z" style="fill:#9fc432"/><path d="M63.39.11A63.39,63.39,0,1,0,126.77,63.5,63.39,63.39,0,0,0,63.39.11ZM63.49,32A14.13,14.13,0,0,1,77.6,46.07c0,6.13-9,22.19-13.64,29.69a.53.53,0,0,1-.43.18c-.36,0-.46-.14-.48-.16-4.77-7.69-13.66-23.62-13.66-29.71A14.12,14.12,0,0,1,63.49,32ZM95.9,93.21a2.37,2.37,0,0,1-1.65,1L75.72,96.55a4,4,0,0,1-1.25-.11l-21.67-7a4.43,4.43,0,0,0-1.08-.13,4.61,4.61,0,0,0-1.1.14L33.78,93.88a2.48,2.48,0,0,1-2.37-.53A2.39,2.39,0,0,1,30.73,91l6-24a2.84,2.84,0,0,1,1.46-1.71l10.18-4A200.57,200.57,0,0,0,58.05,79,6.39,6.39,0,0,0,69,79c2.19-3.66,4.5-7.56,6.69-11.62.94-.16,3.67-.68,11.84-2.31a2.46,2.46,0,0,1,2.8,1.78l6,24.3,0,.06A2.67,2.67,0,0,1,95.9,93.21Z" style="fill:#9fc432"/></svg>