<svg id="Capa_1" data-name="Capa 1" xmlns="http://www.w3.org/2000/svg" viewBox="0 0 127 127"><title>iconos para mapa interactivo 2018</title><circle cx="60.95" cy="63.51" r="52.52" style="fill:#fff"/><path d="M63.5.11A63.39,63.39,0,1,0,126.89,63.5,63.39,63.39,0,0,0,63.5.11Zm31.85,70a2.45,2.45,0,0,1-2.44,2.45H72.55V93.08a2.27,2.27,0,0,1-2.27,2.27H56.72a2.28,2.28,0,0,1-2.28-2.27V72.56H34.09a2.45,2.45,0,0,1-2.44-2.45V56.89a2.44,2.44,0,0,1,2.44-2.44H54.44V33.92a2.28,2.28,0,0,1,2.28-2.27H70.28a2.27,2.27,0,0,1,2.27,2.27V54.45H92.91a2.44,2.44,0,0,1,2.44,2.44Z" style="fill:#34acaf"/></svg>