<svg id="Capa_1" data-name="Capa 1" xmlns="http://www.w3.org/2000/svg" viewBox="0 0 127 127"><title>iconos para mapa interactivo 2018</title><circle cx="63.5" cy="63.5" r="52.52" style="fill:#fff"/><polygon points="57.64 73.89 69.32 73.89 63.48 60.82 57.64 73.89" style="fill:#e74f1c"/><path d="M63.5.11A63.39,63.39,0,1,0,126.89,63.5,63.39,63.39,0,0,0,63.5.11ZM58.7,27.57a1.71,1.71,0,0,1,1.72-1.71h6.2a1.71,1.71,0,0,1,1.72,1.71v7.69A1.72,1.72,0,0,1,66.62,37h-6.2a1.72,1.72,0,0,1-1.72-1.72ZM49.44,92.24a4.22,4.22,0,0,1-3.78,2.5l-1.19,3.6a1.43,1.43,0,0,1-1.35,1,1.39,1.39,0,0,1-.44-.07,1.41,1.41,0,0,1-.9-1.79L43,93.86a4.25,4.25,0,0,1-1.28-5.09L44,83.56h9.31Zm35.67,8.27a1.41,1.41,0,0,1-.45.07,1.45,1.45,0,0,1-1.37-1l-1.61-4.86-.28,0a4.24,4.24,0,0,1-3.88-2.52l-3.88-8.68H83l2.32,5.21a4.23,4.23,0,0,1-.94,4.78L86,98.68A1.45,1.45,0,0,1,85.11,100.51ZM84.63,79.4H43.15a2.76,2.76,0,0,1,0-5.51h5.17l7.94-17.76a9.29,9.29,0,1,1,14.47.06l7.91,17.7h6a2.76,2.76,0,0,1,0,5.51Z" style="fill:#e74f1c"/></svg>