<svg id="Capa_1" data-name="Capa 1" xmlns="http://www.w3.org/2000/svg" viewBox="0 0 127 127"><title>iconos para mapa interactivo 2018</title><circle cx="63.5" cy="63.39" r="63.39" style="fill:#34acaf"/><circle cx="56.18" cy="29.98" r="8.98" style="fill:#fff"/><path d="M73.63,105.12H71.52L82.94,46.06a.72.72,0,0,1,.59-.61l.83.12c.38,0,.65.37.56.83Z" style="fill:#fff"/><path d="M96.83,56.67,84.11,45.5,80.63,62.93l16-5.43A.49.49,0,0,0,96.83,56.67Z" style="fill:#fff"/><rect x="31.9" y="38.96" width="11.98" height="23.01" rx="3.45" ry="3.45" transform="translate(13.49 -7.73) rotate(14.16)" style="fill:#fff;opacity:0.96"/><path d="M49.71,76.06l1.94,1.79,5.84,23.41c.73,2.89,3.21,4.85,5.54,4.39l.46-.13c2-.71,3.11-3.25,2.42-5.94L59.07,72.24l-1.36-3.72,1.52-6.08c2.06,2.58,6.79,5.31,12,6.61,1.34.33,2.8.63,4.41.91a3.76,3.76,0,1,0,1.28-7.41c-11.4-2-11.88-6.24-12.78-14.23a9,9,0,0,0-4.85-6.63,7.73,7.73,0,0,0-2-.78,14.48,14.48,0,0,0-2.2-.28h0c-3.35,0-7.36,1.71-8.33,5.57L41.69,66.92c-.51,2-.76,3.16-.76,3.16L40.4,72,32.45,99.49c-.79,2.66.18,5.25,2.18,6a3.88,3.88,0,0,0,.45.14c2.31.56,4.87-1.3,5.72-4.16l6.79-23.62,2-1.72" style="fill:#fff"/></svg>